<svg width="12" height="14" viewBox="0 0 12 14" fill="none" xmlns="http://www.w3.org/2000/svg">
<path d="M8.9375 8.75C9.61458 8.75 10.1901 8.98698 10.6641 9.46094C11.138 9.9349 11.375 10.5104 11.375 11.1875C11.375 11.8646 11.138 12.4401 10.6641 12.9141C10.1901 13.388 9.61458 13.625 8.9375 13.625C8.26042 13.625 7.6849 13.388 7.21094 12.9141C6.73698 12.4401 6.5 11.8646 6.5 11.1875C6.5 11.0013 6.51693 10.8236 6.55078 10.6543L3.96094 9.0293C3.52083 9.38477 3.01302 9.5625 2.4375 9.5625C1.76042 9.5625 1.1849 9.32552 0.710938 8.85156C0.236979 8.3776 0 7.80208 0 7.125C0 6.44792 0.236979 5.8724 0.710938 5.39844C1.1849 4.92448 1.76042 4.6875 2.4375 4.6875C3.01302 4.6875 3.52083 4.86523 3.96094 5.2207L6.55078 3.5957C6.51693 3.42643 6.5 3.2487 6.5 3.0625C6.5 2.38542 6.73698 1.8099 7.21094 1.33594C7.6849 0.861979 8.26042 0.625 8.9375 0.625C9.61458 0.625 10.1901 0.861979 10.6641 1.33594C11.138 1.8099 11.375 2.38542 11.375 3.0625C11.375 3.73958 11.138 4.3151 10.6641 4.78906C10.1901 5.26302 9.61458 5.5 8.9375 5.5C8.36198 5.5 7.85417 5.32227 7.41406 4.9668L4.82422 6.5918C4.85807 6.76107 4.875 6.9388 4.875 7.125C4.875 7.3112 4.85807 7.48893 4.82422 7.6582L7.41406 9.2832C7.85417 8.92773 8.36198 8.75 8.9375 8.75Z" fill="#C4C4C4"/>
</svg>
